<?xml version="1.0" encoding="UTF-8"?>
<!DOCTYPE svg PUBLIC "-//W3C//DTD SVG 1.1//EN" "http://www.w3.org/Graphics/SVG/1.1/DTD/svg11.dtd">
<!-- Creator: CorelDRAW X7 -->
<svg xmlns="http://www.w3.org/2000/svg" xml:space="preserve" width="899.794mm" height="459.27mm" version="1.1" style="shape-rendering:geometricPrecision; text-rendering:geometricPrecision; image-rendering:optimizeQuality; fill-rule:evenodd; clip-rule:evenodd"
viewBox="0 0 202579 103400"
 xmlns:xlink="http://www.w3.org/1999/xlink">
 <defs>
  <style type="text/css">
   <![CDATA[
    .fil0 {fill:#DFEBEA}
    .fil2 {fill:#0B6968;fill-opacity:0.050980}
    .fil1 {fill:#0B6968;fill-opacity:0.101961}
   ]]>
  </style>
 </defs>
 <g id="Layer_x0020_1">
  <metadata id="CorelCorpID_0Corel-Layer"/>
  <g id="_335592488">
   <rect class="fil0" width="202579" height="103399"/>
   <path class="fil1" d="M41629 103400l-41629 0 0 -18687c2962,-782 6073,-1201 9281,-1201 14131,0 26371,8088 32348,19888z"/>
   <path class="fil2" d="M202579 86667l0 16733 -51464 0c7733,-11757 21041,-19520 36165,-19520 5387,0 10542,988 15299,2787z"/>
   <path class="fil2" d="M27650 103400l-27650 0 0 -59664c20015,0 36240,16225 36240,36240 0,8931 -3233,17106 -8590,23424z"/>
   <path class="fil1" d="M159320 0l43259 0 0 43259c-23891,0 -43259,-19368 -43259,-43259z"/>
  </g>
 </g>
</svg>
