<?xml version="1.0" encoding="UTF-8"?>
<!DOCTYPE svg PUBLIC "-//W3C//DTD SVG 1.1//EN" "http://www.w3.org/Graphics/SVG/1.1/DTD/svg11.dtd">
<!-- Creator: CorelDRAW X7 -->
<svg xmlns="http://www.w3.org/2000/svg" xml:space="preserve" width="123.506mm" height="210mm" version="1.1" style="shape-rendering:geometricPrecision; text-rendering:geometricPrecision; image-rendering:optimizeQuality; fill-rule:evenodd; clip-rule:evenodd"
viewBox="0 0 1500 2550"
 xmlns:xlink="http://www.w3.org/1999/xlink">
 <defs>
  <style type="text/css">
   <![CDATA[
    .fil1 {fill:white}
    .fil0 {fill:white;fill-rule:nonzero}
   ]]>
  </style>
 </defs>
 <g id="Layer_x0020_1">
  <metadata id="CorelCorpID_0Corel-Layer"/>
  <g id="_264955744">
   <path class="fil0" d="M1393 2170c-37,136 -125,259 -256,334l-79 46 -46 -79 -100 -174 0 0 -547 -947 0 0c-76,-131 -91,-281 -55,-417 37,-137 125,-259 256,-335l79 -45 46 79 647 1121 0 0c76,131 91,281 55,417z"/>
   <path class="fil0" d="M1426 396c76,131 91,281 55,417 -37,136 -125,258 -256,334l-79 46 -45 -79 -101 -174 -82 -143 0 0c-76,-131 -91,-281 -55,-417 37,-136 125,-259 256,-335l79 -45 46 79 182 317 0 0z"/>
   <circle class="fil1" cx="346" cy="2204" r="346"/>
  </g>
 </g>
</svg>
